<svg width="16" height="51" viewBox="0 0 16 51" fill="none" xmlns="http://www.w3.org/2000/svg">
<path d="M7.46589 36.4857C10.09 34.2156 13.0508 31.6398 13.0508 26.5468H10.148C10.148 30.2871 8.03483 32.122 5.58491 34.2509C4.67925 35.0272 3.75036 35.8506 2.89115 36.7915V15.7728C3.62264 16.0786 4.45864 16.2551 5.38752 16.2551C10.0668 16.2551 16 11.2327 16 5.58695C16 2.24654 13.7939 0 10.5196 0C8.29028 0 5.65457 1.16444 3.63425 3.04636C1.28882 5.23409 0 8.08049 0 11.068V51H3.13498C3.75036 48.5417 5.50363 47.0127 7.46589 45.3072C10.09 43.0371 13.0508 40.4613 13.0508 35.3683H10.148C10.148 39.1086 8.03483 40.9553 5.58491 43.0724C4.67925 43.8605 3.75036 44.672 2.89115 45.613V44.1898C2.89115 40.4613 5.01597 38.6146 7.46589 36.4857ZM10.5196 2.95226C12.7605 2.95226 13.0972 4.6107 13.0972 5.59871C13.0972 5.77514 13.074 5.96333 13.0508 6.15152C13.0044 6.43381 12.9231 6.69257 12.7605 6.82196C12.1335 7.36301 9.97388 6.98662 8.40639 6.7161C7.11756 6.49262 5.81713 6.25738 4.60958 6.26914C6.29318 4.15198 8.836 2.95226 10.5196 2.95226ZM2.90276 10.7857C2.93759 10.3035 3.03048 9.78598 3.32075 9.53897C4.04064 8.92735 6.18868 9.30374 7.91872 9.60955C9.04499 9.8095 10.1945 10.0095 11.2743 10.033C9.79971 11.8796 7.61684 13.3263 5.38752 13.3263C3.69231 13.3263 2.89115 12.6089 2.89115 11.068C2.89115 10.9739 2.90276 10.8798 2.90276 10.7857Z" fill="#DDBF9C"/>
</svg>
