<svg width="606" height="235" viewBox="0 0 606 235" fill="none" xmlns="http://www.w3.org/2000/svg">
<path d="M20.2795 50.3985H22.8976C33.8685 50.3985 42.7201 59.0007 42.7201 69.9716C42.7201 80.9426 33.8685 89.7941 22.8976 89.7941H2.45175V72.839H22.8976C24.2689 72.839 25.765 71.8417 25.765 69.9716C25.765 68.6003 24.2689 67.3536 22.8976 67.3536H20.2795C9.30858 67.3536 0.457031 58.502 0.457031 47.5311C0.457031 36.5601 9.30858 27.7086 20.2795 27.7086H40.9747V44.6637H20.2795C18.9081 44.6637 17.4121 45.661 17.4121 47.5311C17.4121 48.9024 18.9081 50.3985 20.2795 50.3985Z" fill="#F4E0C8"/>
<path d="M79.3544 27.4593C91.6967 27.4593 101.546 38.3055 101.546 52.1439C101.546 65.7329 91.6967 76.7038 79.3544 76.7038H72.9963V89.5448H54.9192V27.4593H79.3544ZM72.9963 61.3694H76.7364C81.3492 61.3694 85.0892 57.006 85.0892 52.1439C85.0892 47.0324 81.3492 42.669 76.7364 42.669H72.9963V61.3694Z" fill="#F4E0C8"/>
<path d="M171.64 27.4593V45.5364H127.632V49.5258H161.293V67.4782H127.632V71.4677H171.64V89.5448H109.555V27.4593H171.64Z" fill="#F4E0C8"/>
<path d="M222.938 65.1095L239.519 73.9611C233.909 83.81 223.437 90.4175 211.344 90.4175C193.516 90.4175 179.303 76.3298 179.303 58.502C179.303 40.6742 193.516 26.5866 211.344 26.5866C223.437 26.5866 233.909 33.1941 239.519 43.043L222.938 51.8945C220.819 48.0298 216.455 45.1624 211.344 45.1624C203.988 45.1624 198.004 51.0218 198.004 58.502C198.004 65.9822 203.988 71.8417 211.344 71.8417C216.455 71.8417 220.819 69.0989 222.938 65.1095Z" fill="#F4E0C8"/>
<path d="M264.6 27.5839V89.6694H249.141V27.5839H264.6Z" fill="#F4E0C8"/>
<path d="M343.478 89.6694H325.401L323.032 84.558H293.984L291.615 89.6694H273.538L302.088 27.5839H317.547L343.478 89.6694ZM308.944 53.3906L301.464 68.9743H315.801L308.944 53.3906Z" fill="#F4E0C8"/>
<path d="M370.036 27.4593V71.4677H414.045V89.5448H351.959V27.4593H370.036Z" fill="#F4E0C8"/>
<path d="M474.317 27.5839V43.043H453.497V89.6694H435.42V43.043H414.6V27.5839H474.317Z" fill="#F4E0C8"/>
<path d="M509.453 41.6716L517.557 27.5839H538.626L502.596 89.6694H482.4L498.856 60.6214L479.782 27.5839H501.973L509.453 41.6716Z" fill="#F4E0C8"/>
<path d="M557.665 2.02664C556.917 4.9356 555.961 8.0939 554.798 11.5015C553.634 14.9092 552.346 18.3168 550.933 21.7245C549.603 25.049 548.273 28.2073 546.944 31.1994H538.84C539.422 28.8722 540.004 26.3788 540.586 23.7192C541.25 21.0595 541.832 18.3999 542.331 15.7403C542.913 12.9976 543.411 10.338 543.827 7.76145C544.326 5.18494 544.741 2.81622 545.074 0.655273H556.793L557.665 2.02664Z" fill="#F4E0C8"/>
<path d="M582.949 50.3985H585.567C596.538 50.3985 605.389 59.0007 605.389 69.9716C605.389 80.9426 596.538 89.7941 585.567 89.7941H565.121V72.839H585.567C586.938 72.839 588.434 71.8417 588.434 69.9716C588.434 68.6003 586.938 67.3536 585.567 67.3536H582.949C571.978 67.3536 563.126 58.502 563.126 47.5311C563.126 36.5601 571.978 27.7086 582.949 27.7086H603.644V44.6637H582.949C581.578 44.6637 580.081 45.661 580.081 47.5311C580.081 48.9024 581.578 50.3985 582.949 50.3985Z" fill="#F4E0C8"/>
<path d="M186.71 157.545V122.513H204.787V184.598H186.71L160.779 150.937V184.598H142.702V122.513H160.779L186.71 157.545Z" fill="#F4E0C8"/>
<path d="M247.903 121.266C265.73 121.266 279.818 135.354 279.818 153.182C279.818 171.009 265.73 185.097 247.903 185.097C230.075 185.097 215.987 171.009 215.987 153.182C215.987 135.354 230.075 121.266 247.903 121.266ZM247.903 166.521C255.383 166.521 261.242 160.662 261.242 153.182C261.242 145.701 255.383 139.842 247.903 139.842C240.422 139.842 234.563 145.701 234.563 153.182C234.563 160.662 240.422 166.521 247.903 166.521Z" fill="#F4E0C8"/>
<path d="M343.923 122.513V137.972H323.103V184.598H305.026V137.972H284.206V122.513H343.923Z" fill="#F4E0C8"/>
<path d="M414.714 122.388V140.465H370.706V144.455H404.367V162.407H370.706V166.397H414.714V184.474H352.629V122.388H414.714Z" fill="#F4E0C8"/>
<path d="M443.696 145.327H446.314C457.285 145.327 466.137 153.93 466.137 164.9C466.137 175.871 457.285 184.723 446.314 184.723H425.868V167.768H446.314C447.686 167.768 449.182 166.771 449.182 164.9C449.182 163.529 447.686 162.282 446.314 162.282H443.696C432.725 162.282 423.874 153.431 423.874 142.46C423.874 131.489 432.725 122.637 443.696 122.637H464.391V139.593H443.696C442.325 139.593 440.829 140.59 440.829 142.46C440.829 143.831 442.325 145.327 443.696 145.327Z" fill="#F4E0C8"/>
<path d="M120.519 222.474C120.519 221.885 120.704 221.424 121.075 221.091C121.459 220.758 121.984 220.592 122.65 220.592L129.447 231.133L129.62 230.979L128.909 229.808V220.592C129.664 220.592 130.234 220.739 130.618 221.034C131.002 221.328 131.194 221.77 131.194 222.358V232.727C131.194 233.175 131.015 233.565 130.656 233.898C130.298 234.218 129.863 234.378 129.351 234.378L122.266 223.395L122.093 223.53L122.803 224.72V232.611C122.803 233.187 122.605 233.629 122.208 233.936C121.824 234.231 121.261 234.378 120.519 234.378V222.474ZM139.004 234.378C137.877 234.378 136.873 234.167 135.989 233.744C135.119 233.309 134.441 232.714 133.954 231.959C133.468 231.191 133.225 230.32 133.225 229.347V225.565C133.225 224.592 133.461 223.734 133.935 222.992C134.421 222.237 135.093 221.648 135.951 221.226C136.821 220.803 137.807 220.592 138.908 220.592C140.009 220.592 140.988 220.765 141.846 221.11C142.716 221.443 143.388 221.91 143.862 222.512C144.348 223.114 144.591 223.798 144.591 224.566C144.591 225.014 144.444 225.367 144.15 225.623C143.855 225.866 143.458 225.987 142.959 225.987C142.716 225.987 142.486 225.962 142.268 225.911C142.306 225.719 142.326 225.437 142.326 225.066C142.326 224.336 142.006 223.741 141.366 223.28C140.738 222.819 139.919 222.589 138.908 222.589C137.909 222.589 137.097 222.864 136.469 223.414C135.842 223.965 135.529 224.682 135.529 225.565V229.347C135.529 229.936 135.676 230.461 135.97 230.922C136.265 231.383 136.674 231.741 137.199 231.997C137.724 232.253 138.325 232.381 139.004 232.381C139.99 232.381 140.796 232.144 141.423 231.671C142.063 231.184 142.383 230.57 142.383 229.827V229.059H140.463C140.015 229.059 139.644 228.893 139.349 228.56C139.068 228.215 138.927 227.767 138.927 227.216H143.593C143.926 227.216 144.188 227.312 144.38 227.504C144.585 227.696 144.687 227.952 144.687 228.272V229.866C144.687 230.736 144.444 231.517 143.958 232.208C143.484 232.887 142.812 233.418 141.942 233.802C141.084 234.186 140.105 234.378 139.004 234.378ZM152.241 234.378C151.179 234.378 150.225 234.167 149.38 233.744C148.536 233.309 147.87 232.714 147.384 231.959C146.91 231.203 146.673 230.352 146.673 229.405V222.358C146.673 221.782 146.865 221.347 147.249 221.053C147.646 220.746 148.222 220.592 148.977 220.592V229.405C148.977 230.301 149.272 231.018 149.86 231.555C150.462 232.08 151.256 232.343 152.241 232.343C153.214 232.343 153.995 232.074 154.584 231.536C155.185 230.999 155.486 230.288 155.486 229.405V222.358C155.486 221.782 155.678 221.347 156.062 221.053C156.459 220.746 157.035 220.592 157.79 220.592V229.405C157.79 230.352 157.547 231.203 157.06 231.959C156.587 232.714 155.928 233.309 155.083 233.744C154.238 234.167 153.291 234.378 152.241 234.378ZM164.439 229.367L159.678 220.842C159.793 220.778 159.966 220.72 160.196 220.669C160.427 220.618 160.638 220.592 160.83 220.592C161.252 220.592 161.604 220.682 161.886 220.861C162.18 221.027 162.43 221.296 162.635 221.667L165.553 227.12L165.054 228.119L165.246 228.215L168.568 221.667C168.926 220.95 169.528 220.592 170.372 220.592C170.564 220.592 170.776 220.618 171.006 220.669C171.236 220.72 171.409 220.778 171.524 220.842L166.763 229.367V232.611C166.763 233.175 166.564 233.61 166.167 233.917C165.771 234.224 165.195 234.378 164.439 234.378V229.367ZM173.507 221.821C173.507 221.526 173.616 221.277 173.834 221.072C174.064 220.867 174.346 220.765 174.678 220.765H183.223C183.223 221.456 183.095 221.962 182.839 222.282C182.595 222.602 182.198 222.762 181.648 222.762H175.811V226.429H181.014C181.014 227.12 180.886 227.626 180.63 227.946C180.387 228.266 179.997 228.426 179.459 228.426H175.811V232.208H182.051C182.589 232.208 182.979 232.368 183.223 232.688C183.479 233.008 183.607 233.514 183.607 234.205H174.678C174.346 234.205 174.064 234.103 173.834 233.898C173.616 233.693 173.507 233.437 173.507 233.13V221.821ZM176.886 219.306C176.669 219.562 176.355 219.69 175.946 219.69C175.69 219.69 175.446 219.632 175.216 219.517C174.986 219.402 174.813 219.235 174.698 219.018L177.558 216.042C177.776 215.824 178.019 215.715 178.288 215.715C178.557 215.715 178.8 215.824 179.018 216.042L181.878 219.018C181.763 219.235 181.59 219.402 181.36 219.517C181.13 219.632 180.886 219.69 180.63 219.69C180.221 219.69 179.907 219.562 179.69 219.306L178.288 217.578L176.886 219.306ZM185.582 222.474C185.582 221.885 185.768 221.424 186.139 221.091C186.523 220.758 187.048 220.592 187.714 220.592L194.511 231.133L194.683 230.979L193.973 229.808V220.592C194.728 220.592 195.298 220.739 195.682 221.034C196.066 221.328 196.258 221.77 196.258 222.358V232.727C196.258 233.175 196.079 233.565 195.72 233.898C195.362 234.218 194.927 234.378 194.415 234.378L187.33 223.395L187.157 223.53L187.867 224.72V232.611C187.867 233.187 187.669 233.629 187.272 233.936C186.888 234.231 186.325 234.378 185.582 234.378V222.474ZM204.791 234.205C204.471 234.205 204.196 234.103 203.966 233.898C203.735 233.68 203.62 233.424 203.62 233.13V221.821C203.62 221.526 203.729 221.277 203.947 221.072C204.177 220.867 204.459 220.765 204.791 220.765H209.995C211.198 220.765 212.152 221.104 212.856 221.782C213.572 222.461 213.931 223.37 213.931 224.509C213.931 225.072 213.777 225.61 213.47 226.122C213.176 226.621 212.779 227.005 212.28 227.274V227.331C212.971 227.549 213.508 227.927 213.892 228.464C214.289 228.989 214.488 229.597 214.488 230.288C214.488 231.056 214.315 231.741 213.969 232.343C213.624 232.931 213.144 233.392 212.529 233.725C211.915 234.045 211.211 234.205 210.417 234.205H204.791ZM209.956 226.506C210.417 226.506 210.808 226.32 211.128 225.949C211.46 225.578 211.627 225.123 211.627 224.586C211.627 224.01 211.48 223.555 211.185 223.222C210.891 222.89 210.481 222.723 209.956 222.723H205.886V226.506H209.956ZM210.34 232.227C210.916 232.227 211.364 232.061 211.684 231.728C212.017 231.383 212.184 230.915 212.184 230.327C212.184 229.725 212.024 229.264 211.704 228.944C211.384 228.611 210.929 228.445 210.34 228.445H205.886V232.227H210.34ZM216.754 234.378C216.255 234.314 215.864 234.135 215.583 233.84C215.301 233.533 215.16 233.162 215.16 232.727C215.16 232.381 215.243 232.035 215.41 231.69L219.864 221.341C220.082 220.842 220.459 220.592 220.997 220.592C221.522 220.592 221.899 220.842 222.13 221.341L226.584 231.69C226.738 232.048 226.815 232.387 226.815 232.707C226.815 233.155 226.674 233.533 226.392 233.84C226.111 234.135 225.72 234.314 225.221 234.378L223.589 230.615H218.386L216.754 234.378ZM222.879 228.618L220.651 223.03L220.44 223.107L220.882 224.202L219.096 228.618H222.879ZM220.344 219.018C220.344 218.8 220.395 218.614 220.498 218.461C220.613 218.307 220.773 218.141 220.978 217.962C221.157 217.808 221.291 217.674 221.381 217.558C221.471 217.43 221.515 217.29 221.515 217.136C221.515 216.803 221.311 216.637 220.901 216.637C220.491 216.637 220.287 216.861 220.287 217.309C220.287 217.475 220.306 217.616 220.344 217.731C219.845 217.731 219.455 217.654 219.173 217.501C218.891 217.334 218.751 217.085 218.751 216.752C218.751 216.33 218.955 215.978 219.365 215.696C219.787 215.402 220.319 215.254 220.959 215.254C221.688 215.254 222.258 215.402 222.667 215.696C223.077 215.978 223.282 216.374 223.282 216.886C223.282 217.142 223.231 217.347 223.128 217.501C223.026 217.654 222.872 217.834 222.667 218.038C222.488 218.205 222.354 218.358 222.264 218.499C222.175 218.627 222.13 218.781 222.13 218.96C222.13 219.178 222.015 219.357 221.784 219.498C221.554 219.626 221.272 219.69 220.939 219.69C220.709 219.69 220.511 219.664 220.344 219.613V219.018ZM228.821 222.474C228.821 221.885 229.006 221.424 229.378 221.091C229.762 220.758 230.286 220.592 230.952 220.592L237.749 231.133L237.922 230.979L237.211 229.808V220.592C237.967 220.592 238.536 220.739 238.92 221.034C239.304 221.328 239.496 221.77 239.496 222.358V232.727C239.496 233.175 239.317 233.565 238.959 233.898C238.6 234.218 238.165 234.378 237.653 234.378L230.568 223.395L230.395 223.53L231.106 224.72V232.611C231.106 233.187 230.907 233.629 230.51 233.936C230.126 234.231 229.563 234.378 228.821 234.378V222.474Z" fill="#CB9E70"/>
<path d="M399.238 222.781H394.573C394.573 221.437 395.194 220.765 396.435 220.765H406.189C406.189 221.43 406.029 221.936 405.709 222.282C405.402 222.614 404.941 222.781 404.326 222.781H401.542V232.611C401.542 233.175 401.344 233.61 400.947 233.917C400.55 234.224 399.981 234.378 399.238 234.378V222.781ZM407.975 222.358C407.975 221.782 408.167 221.347 408.551 221.053C408.948 220.746 409.524 220.592 410.279 220.592V226.429H416.385V222.358C416.385 221.782 416.583 221.347 416.98 221.053C417.377 220.746 417.953 220.592 418.708 220.592V232.611C418.708 233.175 418.51 233.61 418.113 233.917C417.716 234.224 417.14 234.378 416.385 234.378V228.445H410.279V232.611C410.279 233.187 410.081 233.629 409.684 233.936C409.3 234.231 408.731 234.378 407.975 234.378V222.358ZM426.573 234.378C425.51 234.378 424.557 234.167 423.712 233.744C422.867 233.309 422.201 232.714 421.715 231.959C421.241 231.203 421.005 230.352 421.005 229.405V222.358C421.005 221.782 421.197 221.347 421.581 221.053C421.977 220.746 422.553 220.592 423.309 220.592V229.405C423.309 230.301 423.603 231.018 424.192 231.555C424.793 232.08 425.587 232.343 426.573 232.343C427.546 232.343 428.326 232.074 428.915 231.536C429.517 230.999 429.818 230.288 429.818 229.405V222.358C429.818 221.782 430.01 221.347 430.394 221.053C430.79 220.746 431.366 220.592 432.122 220.592V229.405C432.122 230.352 431.878 231.203 431.392 231.959C430.918 232.714 430.259 233.309 429.414 233.744C428.57 234.167 427.622 234.378 426.573 234.378ZM426.054 219.018C426.054 218.8 426.105 218.614 426.208 218.461C426.323 218.307 426.483 218.141 426.688 217.962C426.867 217.808 427.001 217.674 427.091 217.558C427.181 217.43 427.226 217.29 427.226 217.136C427.226 216.803 427.021 216.637 426.611 216.637C426.201 216.637 425.997 216.861 425.997 217.309C425.997 217.475 426.016 217.616 426.054 217.731C425.555 217.731 425.165 217.654 424.883 217.501C424.601 217.334 424.461 217.085 424.461 216.752C424.461 216.33 424.665 215.978 425.075 215.696C425.497 215.402 426.029 215.254 426.669 215.254C427.398 215.254 427.968 215.402 428.378 215.696C428.787 215.978 428.992 216.374 428.992 216.886C428.992 217.142 428.941 217.347 428.838 217.501C428.736 217.654 428.582 217.834 428.378 218.038C428.198 218.205 428.064 218.358 427.974 218.499C427.885 218.627 427.84 218.781 427.84 218.96C427.84 219.178 427.725 219.357 427.494 219.498C427.264 219.626 426.982 219.69 426.649 219.69C426.419 219.69 426.221 219.664 426.054 219.613V219.018ZM444.873 234.378C443.759 234.378 442.761 234.167 441.878 233.744C441.007 233.309 440.329 232.714 439.843 231.959C439.356 231.191 439.113 230.32 439.113 229.347V225.565C439.113 224.592 439.35 223.734 439.823 222.992C440.31 222.237 440.982 221.648 441.839 221.226C442.71 220.803 443.695 220.592 444.796 220.592C445.91 220.592 446.895 220.765 447.753 221.11C448.611 221.443 449.276 221.917 449.75 222.531C450.236 223.133 450.48 223.824 450.48 224.605C450.48 225.053 450.332 225.405 450.038 225.661C449.744 225.904 449.347 226.026 448.848 226.026C448.604 226.026 448.374 226 448.156 225.949C448.195 225.757 448.214 225.469 448.214 225.085C448.214 224.355 447.894 223.76 447.254 223.299C446.627 222.838 445.807 222.608 444.796 222.608C443.798 222.608 442.985 222.883 442.358 223.434C441.731 223.984 441.417 224.694 441.417 225.565V229.347C441.417 230.231 441.737 230.954 442.377 231.517C443.017 232.067 443.849 232.343 444.873 232.343C445.884 232.343 446.71 232.119 447.35 231.671C447.99 231.21 448.31 230.615 448.31 229.885C448.31 229.527 448.291 229.251 448.252 229.059C448.457 229.008 448.681 228.983 448.924 228.983C449.424 228.983 449.82 229.117 450.115 229.386C450.422 229.655 450.576 230.019 450.576 230.48C450.576 231.235 450.332 231.907 449.846 232.496C449.372 233.085 448.7 233.546 447.83 233.879C446.959 234.211 445.974 234.378 444.873 234.378ZM457.767 234.378C456.718 234.378 455.758 234.167 454.887 233.744C454.03 233.322 453.351 232.752 452.852 232.035C452.353 231.319 452.103 230.531 452.103 229.674V225.277C452.103 224.419 452.347 223.632 452.833 222.915C453.332 222.198 454.011 221.635 454.868 221.226C455.739 220.803 456.705 220.592 457.767 220.592C458.83 220.592 459.79 220.803 460.648 221.226C461.518 221.635 462.196 222.198 462.683 222.915C463.182 223.632 463.432 224.419 463.432 225.277V229.674C463.432 230.531 463.182 231.319 462.683 232.035C462.184 232.752 461.499 233.322 460.628 233.744C459.771 234.167 458.817 234.378 457.767 234.378ZM457.767 232.362C458.791 232.362 459.604 232.112 460.206 231.613C460.82 231.114 461.128 230.455 461.128 229.635V225.315C461.128 224.496 460.82 223.843 460.206 223.357C459.604 222.858 458.791 222.608 457.767 222.608C456.743 222.608 455.924 222.858 455.31 223.357C454.708 223.843 454.407 224.496 454.407 225.315V229.635C454.407 230.455 454.708 231.114 455.31 231.613C455.924 232.112 456.743 232.362 457.767 232.362ZM456.385 219.306C456.167 219.562 455.854 219.69 455.444 219.69C455.188 219.69 454.945 219.632 454.715 219.517C454.484 219.402 454.311 219.235 454.196 219.018L457.057 216.042C457.275 215.824 457.518 215.715 457.787 215.715C458.055 215.715 458.299 215.824 458.516 216.042L461.377 219.018C461.262 219.235 461.089 219.402 460.859 219.517C460.628 219.632 460.385 219.69 460.129 219.69C459.72 219.69 459.406 219.562 459.188 219.306L457.787 217.578L456.385 219.306ZM465.408 222.474C465.408 221.885 465.593 221.424 465.965 221.091C466.349 220.758 466.873 220.592 467.539 220.592L474.336 231.133L474.509 230.979L473.798 229.808V220.592C474.554 220.592 475.123 220.739 475.507 221.034C475.891 221.328 476.083 221.77 476.083 222.358V232.727C476.083 233.175 475.904 233.565 475.546 233.898C475.187 234.218 474.752 234.378 474.24 234.378L467.155 223.395L466.982 223.53L467.693 224.72V232.611C467.693 233.187 467.494 233.629 467.097 233.936C466.713 234.231 466.15 234.378 465.408 234.378V222.474ZM483.893 234.378C482.767 234.378 481.762 234.167 480.879 233.744C480.008 233.309 479.33 232.714 478.843 231.959C478.357 231.191 478.114 230.32 478.114 229.347V225.565C478.114 224.592 478.351 223.734 478.824 222.992C479.311 222.237 479.983 221.648 480.84 221.226C481.711 220.803 482.696 220.592 483.797 220.592C484.898 220.592 485.877 220.765 486.735 221.11C487.605 221.443 488.277 221.91 488.751 222.512C489.237 223.114 489.48 223.798 489.48 224.566C489.48 225.014 489.333 225.367 489.039 225.623C488.744 225.866 488.348 225.987 487.848 225.987C487.605 225.987 487.375 225.962 487.157 225.911C487.196 225.719 487.215 225.437 487.215 225.066C487.215 224.336 486.895 223.741 486.255 223.28C485.627 222.819 484.808 222.589 483.797 222.589C482.799 222.589 481.986 222.864 481.359 223.414C480.731 223.965 480.418 224.682 480.418 225.565V229.347C480.418 229.936 480.565 230.461 480.859 230.922C481.154 231.383 481.563 231.741 482.088 231.997C482.613 232.253 483.215 232.381 483.893 232.381C484.879 232.381 485.685 232.144 486.312 231.671C486.952 231.184 487.272 230.57 487.272 229.827V229.059H485.352C484.904 229.059 484.533 228.893 484.239 228.56C483.957 228.215 483.816 227.767 483.816 227.216H488.482C488.815 227.216 489.077 227.312 489.269 227.504C489.474 227.696 489.576 227.952 489.576 228.272V229.866C489.576 230.736 489.333 231.517 488.847 232.208C488.373 232.887 487.701 233.418 486.831 233.802C485.973 234.186 484.994 234.378 483.893 234.378Z" fill="#CB9E70"/>
</svg>
